<?xml version="1.0" encoding="UTF-8"?>
<svg id="Favicon" xmlns="http://www.w3.org/2000/svg" xmlns:xlink="http://www.w3.org/1999/xlink" viewBox="0 0 500 242.87">
  <defs>
    <style>
      .cls-1 {
        fill: url(#Degradado_sin_nombre_37);
        stroke-width: 0px;
      }
    </style>
    <linearGradient id="Degradado_sin_nombre_37" data-name="Degradado sin nombre 37" x1="65.37" y1="121.43" x2="434.63" y2="121.43" gradientUnits="userSpaceOnUse">
      <stop offset="0" stop-color="#7c82ff"/>
      <stop offset="1" stop-color="#5ad5e6"/>
    </linearGradient>
  </defs>
  <path class="cls-1" d="m434.63,94.68v-40.55h-40.55v15.1h-18.94c-1.44,0-2.83.57-3.84,1.59l-17.56,17.56v-37.57c0-7.15-5.8-12.95-12.95-12.95h-176.56c-7.15,0-12.95,5.8-12.95,12.95v10.96l-23.23-23.23c-1.02-1.02-2.4-1.59-3.84-1.59h-18.28v-14.84h-40.55v40.55h40.55v-14.84h16.03l29.33,29.33v38.83h-45.36v-14.84h-40.55v40.55h40.55v-14.84h45.36v38.84l-29.33,29.33h-16.03v-14.84h-40.55v40.55h40.55v-14.84h18.28c1.44,0,2.83-.57,3.84-1.59l23.23-23.23v21.47c0,7.15,5.8,12.95,12.95,12.95h176.56c7.15,0,12.95-5.8,12.95-12.95v-36.65l17.56,17.56c1.02,1.02,2.4,1.59,3.84,1.59h18.94v14.18h40.55v-40.55h-40.55v15.5h-16.69l-23.65-23.66v-46.76l23.65-23.65h16.69v14.57h40.55Zm-180.41-24.84c1.56-1.56,3.55-2.33,5.98-2.33s4.52.76,6.04,2.28c1.52,1.52,2.28,3.46,2.28,5.81s-.76,4.18-2.28,5.69c-1.52,1.52-3.53,2.28-6.04,2.28s-4.42-.76-5.98-2.28c-1.56-1.52-2.34-3.42-2.34-5.69s.78-4.2,2.34-5.75Zm-33.66,75.12l-6.26,9.23-43.74-27.22v-11.05l44.08-27.22,5.92,9.23-39.07,23.58,39.07,23.46Zm49.55-.45c0,10.86-3.3,19.17-9.91,24.94-6.61,5.77-16.63,9.87-30.07,12.3l-2.05-9.79c9.72-1.82,17.03-4.75,21.93-8.77,4.9-4.03,7.35-9.98,7.35-17.88v-38.95h-23.69v-9.34h36.45v47.5Zm14.35.57l38.95-23.58-38.95-23.35,5.92-9.45,44.08,27.22v11.05l-43.74,27.22-6.26-9.11Z"/>
</svg>