<?xml version="1.0" encoding="UTF-8"?>
<svg id="Logo" xmlns="http://www.w3.org/2000/svg" xmlns:xlink="http://www.w3.org/1999/xlink" viewBox="0 0 85 27">
  <defs>
    <style>
      .cls-1 {
        fill: url(#Degradado_sin_nombre_37);
        stroke-width: 0px;
      }
    </style>
    <linearGradient id="Degradado_sin_nombre_37" data-name="Degradado sin nombre 37" x1="6.45" y1="13.5" x2="78.55" y2="13.5" gradientUnits="userSpaceOnUse">
      <stop offset="0" stop-color="#7c82ff"/>
      <stop offset="1" stop-color="#5ad5e6"/>
    </linearGradient>
  </defs>
  <path class="cls-1" d="m78.55,9.4v-5.12h-5.12v1.91h-2.39c-.18,0-.36.07-.49.2l-2.2,2.2V3.92c0-.9-.73-1.64-1.64-1.64H18.92c-.9,0-1.64.73-1.64,1.64v2.04l-2.92-2.92c-.13-.13-.3-.2-.49-.2h-2.31V.96h-5.12v5.12h5.12v-1.87h2.02l3.69,3.69v4.91h-5.72v-1.87h-5.12v5.12h5.12v-1.87h5.72v4.91l-3.69,3.69h-2.02v-1.87h-5.12v5.12h5.12v-1.87h2.31c.18,0,.36-.07.49-.2l2.92-2.92v2.04c0,.9.73,1.64,1.64,1.64h47.79c.9,0,1.64-.73,1.64-1.64v-4.67l2.2,2.2c.13.13.3.2.49.2h2.39v1.79h5.12v-5.12h-5.12v1.96h-2.11l-2.97-2.97v-5.93l2.97-2.97h2.11v1.84h5.12Zm-47.07-2.47c.2-.2.46-.31.78-.31s.59.1.79.3c.2.2.3.45.3.76s-.1.55-.3.75c-.2.2-.46.3-.79.3s-.58-.1-.78-.3c-.2-.2-.31-.45-.31-.75s.1-.55.31-.75Zm-4.68,9.84l-.82,1.21-5.73-3.57v-1.45l5.77-3.57.78,1.21-5.12,3.09,5.12,3.07Zm6.77-.06c0,1.42-.43,2.51-1.3,3.27-.87.76-2.18,1.29-3.94,1.61l-.27-1.28c1.27-.24,2.23-.62,2.87-1.15.64-.53.96-1.31.96-2.34v-5.1h-3.1v-1.22h4.78v6.22Zm8.07-5.66l-.19,1.24h-2.45v6.07h-1.67v-6.07h-1.79v-1.24h1.79v-1.42c0-.5.13-.93.38-1.31.25-.38.61-.67,1.07-.88.46-.21.98-.31,1.58-.31.86,0,1.64.15,2.36.46l-.51,1.16c-.51-.22-1.07-.33-1.69-.33-.52,0-.9.1-1.15.3-.25.2-.37.51-.37.93v1.4h2.64Zm8,3.91h-5.22c.05.77.27,1.34.66,1.72.39.38.89.57,1.48.57.37,0,.72-.06,1.05-.17.33-.11.67-.29,1.02-.51l.72,1.01c-.37.31-.8.55-1.3.72-.5.17-1.02.25-1.57.25-1.2,0-2.14-.38-2.81-1.13-.67-.75-1-1.75-1-3.01,0-.79.14-1.49.43-2.13.29-.63.71-1.13,1.25-1.48.55-.36,1.18-.54,1.91-.54,1.04,0,1.87.35,2.48,1.05.61.7.92,1.66.92,2.89,0,.3-.01.55-.04.75Zm7.34-1.57h-1.19v-1.61c-.55.01-1.02.23-1.43.66-.4.43-.72,1.03-.96,1.81v2.92h1.58v1.19h-4.42v-1.19h1.16v-5.49h-1.16v-1.19h2.43l.3,1.82c.31-.68.68-1.18,1.13-1.51.44-.33.99-.5,1.65-.5.41,0,.81.06,1.19.19l-.28,2.91Zm8.42,1.01l-5.73,3.57-.82-1.19,5.1-3.09-5.1-3.06.78-1.24,5.77,3.57v1.45Zm-17.82-2.3c.3.4.46.97.48,1.72h-3.66c.05-.77.24-1.34.58-1.73.34-.39.78-.58,1.31-.58s.98.2,1.28.6Z"/>
</svg>