<?xml version="1.0" encoding="UTF-8"?>
<svg id="Logo" xmlns="http://www.w3.org/2000/svg" xmlns:xlink="http://www.w3.org/1999/xlink" viewBox="0 0 500 244.84">
  <defs>
    <style>
      .cls-1 {
        fill: url(#Degradado_sin_nombre_37);
        stroke-width: 0px;
      }
    </style>
    <linearGradient id="Degradado_sin_nombre_37" data-name="Degradado sin nombre 37" x1="26.49" y1="122.42" x2="473.51" y2="122.42" gradientUnits="userSpaceOnUse">
      <stop offset="0" stop-color="#7c82ff"/>
      <stop offset="1" stop-color="#5ad5e6"/>
    </linearGradient>
  </defs>
  <path class="cls-1" d="m473.51,97v-31.75h-31.75v11.83h-14.83c-1.13,0-2.21.45-3.01,1.25l-13.65,13.65v-28.96c0-5.6-4.54-10.14-10.14-10.14H103.83c-5.6,0-10.14,4.54-10.14,10.14v12.64l-18.13-18.13c-.8-.8-1.88-1.25-3.01-1.25h-14.31v-11.62h-31.75v31.75h31.75v-11.62h12.55l22.9,22.9v30.46h-35.45v-11.62h-31.75v31.75h31.75v-11.62h35.45v30.46l-22.9,22.91h-12.55v-11.62h-31.75v31.75h31.75v-11.62h14.31c1.13,0,2.21-.45,3.01-1.25l18.13-18.13v12.64c0,5.6,4.54,10.14,10.14,10.14h296.31c5.6,0,10.14-4.54,10.14-10.14v-28.96l13.65,13.66c.8.8,1.88,1.25,3.01,1.25h14.83v11.1h31.75v-31.75h-31.75v12.13h-13.07l-18.43-18.43v-36.79l18.43-18.43h13.07v11.41h31.75Zm-291.85-15.31c1.26-1.26,2.88-1.9,4.86-1.9s3.67.62,4.9,1.85c1.23,1.23,1.85,2.81,1.85,4.72s-.62,3.39-1.85,4.63c-1.23,1.23-2.87,1.85-4.9,1.85s-3.59-.62-4.86-1.85c-1.27-1.23-1.9-2.78-1.9-4.63s.63-3.41,1.9-4.67Zm-29.04,61.02l-5.09,7.49-35.53-22.11v-8.97l35.81-22.11,4.81,7.49-31.73,19.15,31.73,19.06Zm41.95-.37c0,8.82-2.68,15.57-8.05,20.26-5.37,4.69-13.51,8.02-24.43,9.99l-1.67-7.96c7.89-1.48,13.83-3.85,17.81-7.12,3.98-3.27,5.97-8.11,5.97-14.53v-31.64h-19.24v-7.59h29.61v38.58Zm50.05-35.07l-1.2,7.68h-15.17v37.66h-10.36v-37.66h-11.1v-7.68h11.1v-8.79c0-3.08.79-5.8,2.36-8.14,1.57-2.34,3.78-4.16,6.62-5.46,2.84-1.3,6.11-1.94,9.81-1.94,5.3,0,10.18.96,14.62,2.87l-3.15,7.22c-3.15-1.36-6.63-2.04-10.46-2.04-3.21,0-5.58.62-7.12,1.85-1.54,1.23-2.31,3.15-2.31,5.74v8.7h16.38Zm49.59,24.24h-32.38c.31,4.75,1.68,8.31,4.12,10.69,2.44,2.38,5.51,3.56,9.21,3.56,2.28,0,4.46-.35,6.52-1.06,2.07-.71,4.18-1.77,6.34-3.19l4.44,6.29c-2.28,1.91-4.97,3.39-8.05,4.44-3.08,1.05-6.32,1.57-9.71,1.57-7.46,0-13.26-2.33-17.39-6.98-4.13-4.66-6.2-10.87-6.2-18.64,0-4.87.89-9.27,2.68-13.18,1.79-3.92,4.38-6.99,7.77-9.21,3.39-2.22,7.34-3.33,11.84-3.33,6.48,0,11.61,2.17,15.41,6.52,3.79,4.35,5.69,10.32,5.69,17.9,0,1.85-.09,3.39-.28,4.63Zm45.52-9.71h-7.4v-9.99c-3.39.06-6.34,1.42-8.84,4.07-2.5,2.65-4.49,6.38-5.97,11.19v18.13h9.81v7.4h-27.39v-7.4h7.22v-34.05h-7.22v-7.4h15.08l1.85,11.29c1.91-4.19,4.24-7.32,6.99-9.39,2.74-2.07,6.15-3.1,10.22-3.1,2.53,0,5,.4,7.4,1.2l-1.76,18.04Zm52.22,6.29l-35.53,22.11-5.09-7.4,31.64-19.15-31.64-18.97,4.81-7.68,35.81,22.11v8.97Zm-110.51-14.25c1.85,2.47,2.84,6.01,2.96,10.64h-22.67c.31-4.75,1.51-8.33,3.61-10.73,2.1-2.41,4.81-3.61,8.14-3.61s6.11,1.23,7.96,3.7Z"/>
</svg>